<svg width="21" height="21" viewBox="0 0 21 21" fill="none" xmlns="http://www.w3.org/2000/svg">
<path d="M3.95178 0.401611H17.9518C18.7342 0.401611 19.4845 0.712638 20.0377 1.26587C20.591 1.8191 20.902 2.56942 20.902 3.35181V5.35181C20.902 6.21903 20.5281 6.99943 19.9313 7.53931L19.9147 7.55493V18.3167C19.9147 18.8338 19.7091 19.3299 19.3434 19.6956C18.9777 20.0612 18.4816 20.2668 17.9645 20.2668H10.3248V20.2659L10.3151 20.2678C10.1953 20.2904 10.0737 20.302 9.95178 20.302H7.95178C7.8299 20.302 7.70827 20.2904 7.5885 20.2678L7.57874 20.3167L7.5885 20.2668H3.96252C3.44545 20.2668 2.94925 20.0612 2.58362 19.6956C2.21805 19.3299 2.01233 18.8337 2.01233 18.3167V7.47583L1.95959 7.52759C1.66356 7.25696 1.42501 6.92886 1.26038 6.56274C1.08924 6.18206 1.001 5.76919 1.00159 5.35181V3.35181C1.00159 2.56942 1.31261 1.8191 1.86584 1.26587C2.41908 0.712637 3.16939 0.401612 3.95178 0.401611ZM13.9186 7.55103C13.3783 8.03559 12.6775 8.303 11.9518 8.302H9.95178C9.1966 8.302 8.50613 8.01803 7.98499 7.55103L7.95178 7.52075L7.91858 7.55103C7.37832 8.03559 6.67751 8.303 5.95178 8.302H3.91174V18.3665H6.00159V13.3518C6.00159 12.8346 6.20718 12.3386 6.57288 11.9729C6.93857 11.6072 7.43461 11.4016 7.95178 11.4016H9.95178C10.469 11.4016 10.965 11.6072 11.3307 11.9729C11.6964 12.3386 11.902 12.8346 11.902 13.3518V18.3665H18.0153V8.302H15.9518C15.1966 8.302 14.5061 8.01803 13.985 7.55103L13.9518 7.52075L13.9186 7.55103ZM7.90198 18.3665H9.95178V18.3176H10.0016V13.302H7.90198V18.3665ZM14.9518 11.4016H15.9518C16.2037 11.4016 16.4455 11.5018 16.6237 11.6799C16.8018 11.8581 16.902 12.0999 16.902 12.3518V15.3518C16.902 15.6038 16.8018 15.8455 16.6237 16.0237C16.4455 16.2018 16.2037 16.302 15.9518 16.302H14.9518C14.6998 16.302 14.4581 16.2018 14.2799 16.0237C14.1017 15.8455 14.0016 15.6038 14.0016 15.3518V12.3518C14.0016 12.0999 14.1017 11.8581 14.2799 11.6799C14.4581 11.5018 14.6998 11.4016 14.9518 11.4016ZM3.95178 2.302C3.67331 2.302 3.40651 2.41271 3.20959 2.60962C3.01268 2.80653 2.90198 3.07333 2.90198 3.35181V5.35181C2.90198 5.63028 3.01268 5.89708 3.20959 6.09399C3.40651 6.29091 3.67331 6.40161 3.95178 6.40161H5.95178C6.23026 6.40161 6.49706 6.29091 6.69397 6.09399C6.89088 5.89708 7.00159 5.63028 7.00159 5.35181V2.302H3.95178ZM8.90198 5.35181C8.90198 5.63028 9.01268 5.89708 9.20959 6.09399C9.40651 6.29091 9.67331 6.40161 9.95178 6.40161H11.9518C12.2303 6.40161 12.4971 6.29091 12.694 6.09399C12.8909 5.89708 13.0016 5.63028 13.0016 5.35181V2.302H8.90198V5.35181ZM14.902 5.35181C14.902 5.63028 15.0127 5.89708 15.2096 6.09399C15.4065 6.29091 15.6733 6.40161 15.9518 6.40161H17.9518C18.2303 6.40161 18.4971 6.29091 18.694 6.09399C18.8909 5.89708 19.0016 5.63028 19.0016 5.35181V3.35181C19.0016 3.07333 18.8909 2.80653 18.694 2.60962C18.4971 2.41271 18.2303 2.302 17.9518 2.302H14.902V5.35181Z" fill="#181725" stroke="white" stroke-width="0.1"/>
</svg>
